<svg xmlns="http://www.w3.org/2000/svg" viewBox="0 0 512.004 512.004" width="512" height="512"><path d="M106.503 137.776c0-15.773-12.833-28.605-28.605-28.605-6.92 0-13.421 2.429-18.54 6.809a28.639 28.639 0 0 0-9.249-1.532c-15.773 0-28.605 12.832-28.605 28.605 0 12.176 7.847 22.919 18.968 26.929 3.353 12.148 14.552 21.023 27.577 21.023 15.773 0 28.605-12.832 28.605-28.605 0-.974-.049-1.944-.147-2.906 6.268-5.38 9.996-13.296 9.996-21.718zm-21.955 11.867l-5.272 2.964 1.779 5.78c.398 1.294.601 2.644.601 4.011 0 7.502-6.104 13.605-13.605 13.605-7.099 0-13.057-5.54-13.563-12.612l-.431-6.005-5.956-.879c-6.61-.975-11.595-6.76-11.595-13.456 0-7.502 6.104-13.605 13.605-13.605 2.504 0 4.948.684 7.069 1.978l5.781 3.527 4.097-5.392c2.603-3.426 6.554-5.39 10.842-5.39 7.502 0 13.605 6.104 13.605 13.605a13.641 13.641 0 0 1-6.957 11.869zM186.502 41.827c0-14.518-11.811-26.328-26.329-26.328-6.214 0-12.06 2.127-16.715 5.973a26.353 26.353 0 0 0-8.075-1.266c-14.518 0-26.329 11.811-26.329 26.328 0 .896.046 1.791.138 2.682a26.343 26.343 0 0 0-5.786 16.461c0 14.518 11.811 26.328 26.329 26.328 4.54 0 8.984-1.18 12.9-3.381 2.8.987 5.761 1.498 8.752 1.498 14.518 0 26.329-11.811 26.329-26.328 0-.755-.032-1.507-.096-2.255a26.372 26.372 0 0 0 8.882-19.712zm-20.791 9.882l-5.273 2.964 1.78 5.781c.332 1.076.5 2.2.5 3.34 0 6.246-5.082 11.328-11.329 11.328-2.008 0-3.981-.534-5.707-1.544l-4.583-2.684-4.053 3.431a11.178 11.178 0 0 1-7.311 2.68c-6.247 0-11.329-5.082-11.329-11.328a11.347 11.347 0 0 1 3.819-8.476l3.504-3.108-1.255-4.513a11.37 11.37 0 0 1-.418-3.045c0-6.246 5.082-11.328 11.329-11.328 2.085 0 4.12.569 5.886 1.646l5.781 3.526 4.096-5.393c2.166-2.852 5.457-4.487 9.027-4.487 6.247 0 11.329 5.082 11.329 11.328 0 4.087-2.22 7.873-5.793 9.882zM490.499 97.332c0-14.518-11.811-26.328-26.329-26.328-6.213 0-12.059 2.127-16.715 5.974a26.326 26.326 0 0 0-8.076-1.267c-14.518 0-26.329 11.811-26.329 26.328 0 .896.046 1.791.138 2.683a26.34 26.34 0 0 0-5.786 16.46c0 14.518 11.811 26.328 26.329 26.328 4.54 0 8.984-1.18 12.9-3.381 2.8.987 5.761 1.498 8.752 1.498 14.518 0 26.329-11.811 26.329-26.328 0-.754-.032-1.507-.096-2.254a26.368 26.368 0 0 0 8.883-19.713zm-20.793 9.883l-5.274 2.965 1.781 5.781c.331 1.075.499 2.198.499 3.338 0 6.246-5.082 11.328-11.329 11.328-2.008 0-3.981-.534-5.707-1.544l-4.583-2.684-4.053 3.431a11.178 11.178 0 0 1-7.311 2.68c-6.247 0-11.329-5.082-11.329-11.328 0-3.233 1.392-6.323 3.818-8.476l3.503-3.107-1.254-4.512a11.357 11.357 0 0 1-.418-3.048c0-6.246 5.082-11.328 11.329-11.328 2.085 0 4.12.569 5.884 1.646l5.782 3.528 4.097-5.394c2.167-2.853 5.457-4.488 9.027-4.488 6.247 0 11.329 5.082 11.329 11.328a11.352 11.352 0 0 1-5.791 9.884zM410.668 32.557c-3.889-5.725-9.552-9.736-16.051-11.508a28.61 28.61 0 0 0-3.93-8.512c-4.294-6.32-10.792-10.59-18.298-12.022-7.507-1.432-15.12.145-21.439 4.438-10.071 6.843-14.548 19.371-11.614 30.823-8.164 9.6-9.211 23.851-1.891 34.625 4.294 6.32 10.792 10.59 18.298 12.022a28.91 28.91 0 0 0 5.422.516c5.675-.001 11.22-1.694 16.018-4.955a28.583 28.583 0 0 0 2.319-1.753c7.975 2.161 16.615.796 23.583-3.938h-.001c13.046-8.864 16.449-26.689 7.584-39.736zm-10.295 18.626a13.519 13.519 0 0 1-5.718 8.703h-.001a13.636 13.636 0 0 1-13.726.916l-5.414-2.693-3.781 4.719a13.661 13.661 0 0 1-2.98 2.751 13.51 13.51 0 0 1-10.197 2.11 13.52 13.52 0 0 1-8.703-5.718c-3.99-5.872-2.756-13.913 2.809-18.307l4.725-3.731-2.621-5.42c-2.909-6.016-.925-13.391 4.614-17.154a13.51 13.51 0 0 1 7.618-2.355c.856 0 1.719.081 2.579.245a13.52 13.52 0 0 1 8.703 5.718 13.572 13.572 0 0 1 2.337 6.959l.332 6.765 6.763.357c4.295.228 8.141 2.393 10.55 5.938a13.52 13.52 0 0 1 2.111 10.197zM412.5 210.729a26.42 26.42 0 0 0-2.695-11.596c1.774-3.588 2.695-7.531 2.695-11.634 0-12.74-9.094-23.391-21.131-25.81a26.24 26.24 0 0 0 2.131-10.355c0-14.519-11.812-26.33-26.33-26.33-3.958 0-7.817.887-11.325 2.562A34.44 34.44 0 0 0 332 118.004c-2.31 0-4.591.227-6.824.678a26.252 26.252 0 0 0-6.945-4.962 28.628 28.628 0 0 0 8.27-20.105c0-15.775-12.834-28.61-28.61-28.61-6.914 0-13.414 2.43-18.536 6.811a28.644 28.644 0 0 0-9.245-1.53c-5.62 0-10.99 1.62-15.562 4.594-9.545-9.011-24.419-10.531-35.714-2.857-9.659 6.564-14.171 18.363-11.934 29.426-11.188 2.077-19.914 11.254-21.314 22.663a29.943 29.943 0 0 0-10.953-1.078c-6.21.528-11.708 2.605-15.99 5.975a26.366 26.366 0 0 0-8.164-1.292c-14.519 0-26.33 11.812-26.33 26.33 0 .896.045 1.788.136 2.675a26.354 26.354 0 0 0-5.786 16.465c0 4.347 1.05 8.488 2.947 12.148-15.004.864-26.947 13.34-26.947 28.552a28.623 28.623 0 0 0 7.31 19.096c-7.3 8.982-10.916 20.539-9.971 32.134l40.799 246.888h234.721l40.724-246.273.076-.614c.719-8.823-1.203-17.624-5.379-25.285.611-2.382.927-4.801.927-7.144 0-.753-.032-1.503-.095-2.249 5.583-4.945 8.889-12.104 8.889-19.711zm-267.135 286.27l-38.596-233.398c-.604-8.375 2.194-16.377 7.895-22.562 5.767-6.257 13.629-9.702 22.139-9.702h.313a30.02 30.02 0 0 1 30.088 28.952l.006.151.071.906c-.001.611.01 1.223.034 1.837l18.569 233.816h-40.519zm55.568 0l-18.647-236.173c.144-7.595 3.093-14.733 8.408-20.257 5.729-5.953 13.435-9.232 21.697-9.232 16.603 0 30.11 13.508 30.11 30.11v235.552h-41.568zm56.569.001V261.448c0-16.603 13.508-30.11 30.111-30.11 8.262 0 15.968 3.279 21.697 9.232 5.316 5.524 8.265 12.661 8.408 20.257L299.07 497h-41.568zm135.732-233.399l-38.596 233.398H314.12l18.551-233.511.018-.306c.024-.615.035-1.229.034-1.841l.059-.751.018-.302a30.02 30.02 0 0 1 30.088-28.952h.313c8.509 0 16.372 3.445 22.139 9.702 5.7 6.186 8.498 14.188 7.894 22.563zm-1.532-42.994l-4.606 2.592a45.217 45.217 0 0 0-23.896-6.86h-.313c-15.745 0-29.59 7.973-37.658 20.187a45.823 45.823 0 0 0-5.113-6.355c-8.583-8.92-20.127-13.832-32.506-13.832-15.685 0-29.525 8.046-37.61 20.228-8.086-12.181-21.926-20.228-37.611-20.228-12.378 0-23.922 4.912-32.505 13.832a45.764 45.764 0 0 0-5.113 6.355c-8.069-12.214-21.913-20.187-37.658-20.187h-.313a45.224 45.224 0 0 0-23.714 6.746 13.623 13.623 0 0 1-3.586-9.201c0-7.499 6.105-13.6 13.61-13.6 2.503 0 4.948.683 7.069 1.975l5.775 3.518 4.095-5.382a13.75 13.75 0 0 1 3.256-3.069l12.802-8.667-14.731-4.69a11.275 11.275 0 0 1-7.875-10.784c0-3.237 1.391-6.327 3.817-8.479l3.508-3.111-1.262-4.518a11.268 11.268 0 0 1-.413-3.031c0-6.247 5.083-11.33 11.33-11.33 2.089 0 4.123.567 5.882 1.642l5.783 3.531 4.098-5.397c2.476-3.26 6.622-4.253 9.664-4.513 6.653-.56 11.512 3.381 14.412 5.742.898.729 1.673 1.36 2.518 1.872l5.832 3.528 4.029-5.417 3.674-4.832-3.572-4.554a11.215 11.215 0 0 1-2.411-6.982c0-6.206 5.015-11.263 11.206-11.329l4.226.241 2.414-3.142a13.508 13.508 0 0 1 2.314-2.367l4.72-3.73-2.618-5.417c-2.91-6.021-.927-13.398 4.612-17.162 6.205-4.219 14.685-2.597 18.896 3.603.25.368.498.79.74 1.253l5.351 10.255 7.179-9.07c2.607-3.294 6.5-5.184 10.679-5.184 2.503 0 4.948.683 7.069 1.975l5.773 3.517 4.095-5.379c2.609-3.427 6.562-5.393 10.843-5.393 7.504 0 13.61 6.105 13.61 13.61a13.62 13.62 0 0 1-6.951 11.859l-5.26 2.952 1.756 5.771c.386 1.27.589 2.575.604 3.885-.012.2-.019.403-.019.612v6.565l6.508.868a11.3 11.3 0 0 1 8.033 5.145l3.279 5.132 5.695-2.155a19.301 19.301 0 0 1 6.855-1.245 19.474 19.474 0 0 1 16.201 8.646l4.862 7.252 6.436-5.9a11.33 11.33 0 0 1 7.672-2.998c6.248 0 11.33 5.083 11.33 11.33 0 4.084-2.222 7.871-5.798 9.884l-5.301 2.983 1.824 5.803c.175.556.304 1.189.385 1.884l1.292 11.137 9.8-5.445a11.282 11.282 0 0 1 5.467-1.405c6.248 0 11.33 5.078 11.33 11.32 0 2.563-.834 4.98-2.411 6.992l-3.636 4.636 3.644 4.626a11.163 11.163 0 0 1 2.404 6.972c0 4.084-2.222 7.871-5.798 9.884z" fill="#61dafb"/><path d="M275.501 142.503a21.91 21.91 0 0 0-6.467.967 27.898 27.898 0 0 0-20.533-8.967c-13.392 0-24.618 9.451-27.36 22.032-14.81.712-26.64 12.984-26.64 27.968h15c0-7.168 5.832-13 13-13 1.178 0 2.381.173 3.576.515l10.764 3.077-1.249-11.125a13.169 13.169 0 0 1-.091-1.467c0-7.168 5.832-13 13-13 4.849 0 9.264 2.681 11.52 6.995l4.142 7.921 7.081-5.455a6.932 6.932 0 0 1 4.257-1.461c3.86 0 7 3.141 7 7h15c0-12.131-9.869-22-22-22zM325.501 170.003c-7.337 0-14.259 3.155-19.115 8.417a25.287 25.287 0 0 0-8.385-1.417c-14.061 0-25.5 11.439-25.5 25.5h15c0-5.79 4.71-10.5 10.5-10.5 2.27 0 4.442.729 6.28 2.11l7.354 5.522 3.931-8.314c1.814-3.838 5.714-6.318 9.935-6.318 6.065 0 11 4.935 11 11h15c-.001-14.337-11.663-26-26-26zM121.8 262.502l14.8-2.448 9.631 58.229-14.799 2.448zM145.488 405.74l14.799-2.447 6.007 36.336-14.8 2.447zM272.542 452.326l1.546-19.459 14.953 1.188-1.546 19.46zM278.77 373.876l4.529-57.005 14.953 1.188-4.528 57.005zM285.12 293.884l2.634-33.158 14.954 1.188-2.634 33.158z" fill="#61dafb"/></svg>